<?xml version="1.0" encoding="UTF-8" standalone="no"?>
<svg
   xmlns:dc="http://purl.org/dc/elements/1.1/"
   xmlns:cc="http://creativecommons.org/ns#"
   xmlns:rdf="http://www.w3.org/1999/02/22-rdf-syntax-ns#"
   xmlns:svg="http://www.w3.org/2000/svg"
   xmlns="http://www.w3.org/2000/svg"
   xmlns:sodipodi="http://sodipodi.sourceforge.net/DTD/sodipodi-0.dtd"
   xmlns:inkscape="http://www.inkscape.org/namespaces/inkscape"
   viewBox="0 0 1750.0001 212"
   version="1.1"
   id="svg28"
   sodipodi:docname="Ackermans Logo.svg"
   width="1750"
   height="212"
   inkscape:version="1.0.2-2 (e86c870879, 2021-01-15)">
  <sodipodi:namedview
     pagecolor="#ffffff"
     bordercolor="#666666"
     borderopacity="1"
     objecttolerance="10"
     gridtolerance="10"
     guidetolerance="10"
     inkscape:pageopacity="0"
     inkscape:pageshadow="2"
     inkscape:window-width="1920"
     inkscape:window-height="1017"
     id="namedview18"
     showgrid="false"
     units="px"
     inkscape:zoom="0.66004094"
     inkscape:cx="689.37224"
     inkscape:cy="72.99214"
     inkscape:window-x="-8"
     inkscape:window-y="-8"
     inkscape:window-maximized="1"
     inkscape:current-layer="svg28" />
  <metadata
     id="metadata32">
    <rdf:RDF>
      <cc:Work
         rdf:about="">
        <dc:format>image/svg+xml</dc:format>
        <dc:type
           rdf:resource="http://purl.org/dc/dcmitype/StillImage" />
        <dc:title>Asset 2</dc:title>
      </cc:Work>
    </rdf:RDF>
  </metadata>
  <defs
     id="defs4">
    <style
       id="style2">.cls-1{fill:#2ea652;fill-rule:evenodd;}</style>
  </defs>
  <title
     id="title6">Asset 2</title>
  <g
     id="Layer_2"
     data-name="Layer 2"
     transform="scale(1.1085213)">
    <g
       id="Layer_1-2"
       data-name="Layer 1">
      <path
         class="cls-1"
         d="m 1011.53,186.72 c -1.43,-25.73 -2.85,-51.33 -4.32,-77.7 -2.33,2.64 -4.2,4.71 -6,6.82 q -19.28,22.37 -38.56,44.74 c -2.14,2.48 -2.42,2.46 -4.46,0.17 L 913,110.16 A 16.23,16.23 0 0 0 911.57,109 l -4.31,77.75 H 860 c 0,-2.36 -0.1,-4.69 0,-7 0.24,-4.45 0.63,-8.9 0.9,-13.35 q 1,-16.78 1.95,-33.56 c 0.69,-12.24 1.34,-24.49 2,-36.74 q 0.7,-12.65 1.46,-25.29 1,-16.78 2,-33.57 1,-16.79 2,-33.32 a 6,6 0 0 1 0.89,-2.58 c 29.88,32.79 59.21,66 89,99.28 l 87.22,-99.42 0.8,0.28 c 0.25,2.1 0.61,4.2 0.72,6.31 0.56,10.31 1,20.62 1.6,30.92 0.44,8.1 1,16.21 1.44,24.31 q 1,17.27 2,34.54 0.69,11.92 1.44,23.83 c 0.77,12.23 1.59,24.46 2.33,36.69 0.43,7.3 0.72,14.61 1.1,21.92 0.12,2.17 0.31,4.34 0.49,6.73 z"
         id="path8" />
      <path
         class="cls-1"
         d="m 806.2,122.29 37.71,64.47 c -1,0.07 -1.56,0.15 -2.17,0.15 -16.06,0 -32.11,0 -48.17,0.06 a 3.41,3.41 0 0 1 -3.4,-2.07 c -9.83,-17.52 -19.72,-35 -29.52,-52.54 -1.06,-1.89 -2.16,-2.85 -4.5,-2.73 -4.47,0.23 -9,0.07 -13.79,0.07 v 57.06 H 693.94 V 4.89 c 0.85,-0.05 1.64,-0.14 2.43,-0.14 26,0 52,-0.41 78,0.24 17.66,0.44 33.91,6 47,18.49 a 56.72,56.72 0 0 1 16.72,31.87 71,71 0 0 1 -0.76,30.47 c -4.24,16.47 -14.33,28.18 -29.52,35.6 -0.43,0.21 -0.81,0.45 -1.61,0.87 z M 742.27,69 c 0,7.17 0,14.33 0,21.5 0,1.38 0.11,2.37 1.9,2.33 8.7,-0.2 17.42,0 26.09,-0.63 a 26.64,26.64 0 0 0 10.53,-3.4 c 8.49,-4.67 10.7,-14.59 9.51,-23.84 a 21,21 0 0 0 -5.46,-12.23 c -5,-5.2 -11.41,-6.72 -18.17,-7 -7.32,-0.27 -14.66,0 -22,-0.1 -2,0 -2.45,0.73 -2.43,2.58 0.08,6.91 0.03,13.79 0.03,20.79 z"
         id="path10" />
      <path
         class="cls-1"
         d="m 1304,96 v 90.68 h -45.71 c 0,-0.84 -0.12,-1.7 -0.12,-2.56 q 0,-90.35 0,-180.71 a 11.92,11.92 0 0 1 0.74,-2.91 11.44,11.44 0 0 1 3,1.26 q 17.59,14.4 35.09,28.86 l 57.44,47.38 18.65,15.35 c 0.93,0.77 1.89,1.5 3.26,2.59 V 5 H 1422 c 0,0.8 0.12,1.66 0.12,2.52 q 0,90.48 0,181 a 13.26,13.26 0 0 1 -0.57,2.73 10.59,10.59 0 0 1 -3,-1.17 q -23.25,-19 -46.42,-38.08 l -65.58,-54 c -0.66,-0.51 -1.34,-1 -2.55,-2 z"
         id="path12" />
      <path
         class="cls-1"
         d="M 406.81,186.78 H 358.33 V 4.89 c 1,-0.05 1.83,-0.14 2.69,-0.14 14.26,0 28.52,0.07 42.79,-0.07 2.6,0 3.06,0.84 3.05,3.2 -0.08,22.74 0,45.48 0,68.22 v 3.72 c 1,-1.1 1.64,-1.63 2.11,-2.26 q 20.36,-27.3 40.69,-54.62 c 4,-5.42 8,-10.87 12.16,-16.2 a 5,5 0 0 1 3.28,-1.9 c 16.38,-0.12 32.77,-0.08 49.15,-0.08 0.32,0 0.64,0 1.45,0.11 -1.94,2.6 -3.68,5 -5.47,7.31 q -26.65,34.77 -53.35,69.51 a 2.92,2.92 0 0 0 -0.14,4 Q 475,113.3 493.11,141 q 14.42,21.93 28.8,43.89 c 0.35,0.53 0.63,1.1 1.09,1.91 -0.85,0.07 -1.45,0.16 -2.06,0.16 -17.69,0 -35.37,0 -53.06,0 a 3.48,3.48 0 0 1 -3.35,-1.82 Q 444.21,154 423.77,122.83 c -0.4,-0.6 -0.85,-1.17 -1.52,-2.1 -1.52,1.78 -2.95,3.38 -4.3,5 -3.24,4 -6.54,7.9 -9.62,12 a 7.51,7.51 0 0 0 -1.45,4.17 c -0.11,13.94 -0.06,27.87 -0.06,41.81 z"
         id="path14" />
      <path
         class="cls-1"
         d="m 583.92,45.43 v 30.21 h 65.68 v 38.77 h -65.67 c -0.05,1.12 -0.13,2 -0.13,2.84 0,8.64 0.08,17.28 -0.06,25.92 0,2.41 0.76,3 3.06,3 q 38.27,-0.11 76.55,0 c 3.19,0 3.2,0 3.2,3.18 q 0,17.24 0,34.48 v 3 H 535.38 V 5 h 127.44 v 40.43 z"
         id="path16" />
      <path
         class="cls-1"
         d="m 341.37,41.19 -36.79,25 c -2.72,-3.11 -5.14,-6.17 -7.86,-8.94 -7.26,-7.39 -16.33,-11 -26.49,-12.16 -8.9,-1.05 -17.53,-0.31 -25.66,3.71 C 234,54 227.44,62.7 223.36,73.53 a 59,59 0 0 0 -3.78,20.76 c 0,15.41 3.61,29.7 15,41 a 40.14,40.14 0 0 0 24.73,11.46 53.26,53.26 0 0 0 26.5,-3.61 c 8.85,-3.68 15.12,-10.27 20,-18.34 l 1.72,-2.89 37.78,24.26 c -4.14,5.44 -7.84,10.88 -12.12,15.82 -13.36,15.39 -30.6,23.5 -50.62,26 -19.15,2.43 -37.92,1.33 -55.9,-6.4 -25.19,-10.83 -42.62,-29.06 -51.69,-55 A 92.2,92.2 0 0 1 170.21,100.33 94.88,94.88 0 0 1 179,54.7 89.39,89.39 0 0 1 212.1,17.09 86.72,86.72 0 0 1 252.46,3 c 27.64,-2.23 53.33,3.05 74.54,22.36 5.13,4.64 9.4,10.3 14.37,15.83 z"
         id="path18" />
      <path
         class="cls-1"
         d="m 1570.09,26.59 -27.55,28.89 c -2.54,-2 -4.79,-4.16 -7.32,-5.85 a 40.25,40.25 0 0 0 -32.35,-6 c -7.24,1.65 -10.64,6.79 -9.71,14.07 a 10.26,10.26 0 0 0 6.69,8.41 c 6.92,2.78 14,5.24 21,7.64 9.84,3.34 19.8,6.36 29,11.34 11.07,6 20.38,13.74 25.21,25.81 3.54,8.87 4.08,18.12 3.32,27.55 a 54.89,54.89 0 0 1 -6.91,23.4 c -6.86,11.91 -17.42,19 -30.24,23.2 -12.47,4 -25.34,4.94 -38.3,4.27 -16.52,-0.85 -32.24,-4.77 -46.52,-13.51 a 79.54,79.54 0 0 1 -20.89,-18.18 c -0.4,-0.5 -0.76,-1 -1.35,-1.83 l 35.1,-26.35 c 0.92,1 1.82,1.88 2.65,2.84 12.4,14.57 28.12,19.44 46.64,15.77 8,-1.58 12.24,-6.78 12,-14.21 a 10.55,10.55 0 0 0 -6,-9.45 140.33,140.33 0 0 0 -15,-6.4 c -9.59,-3.57 -19.44,-6.5 -28.88,-10.42 -11.88,-4.94 -21.9,-12.45 -28.4,-23.94 A 51.85,51.85 0 0 1 1446,60.1 a 55.7,55.7 0 0 1 3.44,-23.22 c 5.25,-13.37 14.93,-22.46 27.91,-28.19 a 72.26,72.26 0 0 1 25.94,-6 c 15,-0.73 29.46,1.09 43.34,6.89 a 62.41,62.41 0 0 1 21.61,14.77 c 0.62,0.65 1.15,1.39 1.85,2.24 z"
         id="path20" />
      <path
         class="cls-1"
         d="m 180.13,186.8 c -1,0.05 -1.73,0.11 -2.44,0.12 -15.08,0 -30.16,0 -45.24,0 a 3.12,3.12 0 0 1 -3.43,-2.24 c -2.51,-6 -5.26,-11.89 -7.79,-17.88 a 2.84,2.84 0 0 0 -3.12,-2 q -29.71,0.08 -59.43,0 a 2.61,2.61 0 0 0 -2.89,1.9 c -2.29,5.82 -4.76,11.58 -7.1,17.38 C 47.93,186 47,187 44.64,187 30.7,186.84 16.76,186.92 2.82,186.92 H 0 c 1.6,-3.42 3,-6.49 4.46,-9.53 Q 28.21,127.77 52,78.17 69.57,41.42 87.14,4.67 A 28.71,28.71 0 0 1 88.62,1.6 C 89,1 89.74,0.1 90.29,0.12 90.84,0.14 91.6,1 91.92,1.67 q 6.42,13.33 12.74,26.63 9.49,19.93 19,39.87 17.2,36.12 34.42,72.23 10.45,21.91 20.91,43.82 c 0.34,0.78 0.68,1.57 1.14,2.58 z M 104.76,129.44 88.09,90.68 71.68,129.44 Z"
         id="path22" />
      <path
         class="cls-1"
         d="m 1247.12,186.79 c -1.08,0.05 -1.86,0.12 -2.64,0.12 -15,0 -30,0 -45,0.05 a 3.18,3.18 0 0 1 -3.46,-2.25 c -2.53,-6 -5.23,-11.91 -7.76,-17.9 a 2.69,2.69 0 0 0 -2.89,-1.94 q -29.83,0.07 -59.66,0 a 2.64,2.64 0 0 0 -2.87,1.94 c -2.42,6 -5,12 -7.43,18 -0.52,1.27 -1.07,2.12 -2.77,2.11 -14.75,-0.08 -29.51,0 -44.26,-0.05 -0.31,0 -0.63,-0.06 -1.28,-0.13 1.54,-3.3 3,-6.44 4.48,-9.56 q 16.92,-35.32 33.85,-70.63 23.11,-48.3 46.19,-96.61 c 1.3,-2.71 2.52,-5.47 3.88,-8.14 a 8.77,8.77 0 0 1 1.77,-1.8 c 0.6,0.6 1.42,1.11 1.77,1.83 q 7.63,15.82 15.15,31.69 9.65,20.26 19.3,40.53 17.09,35.9 34.19,71.8 9.18,19.27 18.39,38.52 c 0.34,0.7 0.63,1.43 1.05,2.42 z m -108.38,-57.38 h 33.07 L 1155.13,90.7 Z"
         id="path24" />
    </g>
  </g>
</svg>
